<mxfile host="app.diagrams.net" agent="Mozilla/5.0 (Windows NT 10.0; Win64; x64) AppleWebKit/537.36 (KHTML, like Gecko) Chrome/129.0.0.0 Safari/537.36" version="24.7.17">
  <diagram name="Página-1" id="8l3HKhWqr7Sx74eXtDH7">
    <mxGraphModel dx="1805" dy="556" grid="1" gridSize="10" guides="1" tooltips="1" connect="1" arrows="1" fold="1" page="1" pageScale="1" pageWidth="827" pageHeight="1169" math="0" shadow="0">
      <root>
        <mxCell id="0" />
        <mxCell id="1" parent="0" />
        <mxCell id="rOVI7ApDG3kp_KQPrLXT-1" value="&lt;div&gt;Aluno&lt;/div&gt;&lt;div&gt;&lt;br&gt;&lt;/div&gt;" style="shape=umlActor;verticalLabelPosition=bottom;verticalAlign=top;html=1;outlineConnect=0;" parent="1" vertex="1">
          <mxGeometry x="140" y="160" width="30" height="60" as="geometry" />
        </mxCell>
        <mxCell id="rOVI7ApDG3kp_KQPrLXT-6" value="Bibliotecário&lt;div&gt;&lt;br&gt;&lt;/div&gt;" style="shape=umlActor;verticalLabelPosition=bottom;verticalAlign=top;html=1;outlineConnect=0;" parent="1" vertex="1">
          <mxGeometry x="802" y="170" width="30" height="60" as="geometry" />
        </mxCell>
        <mxCell id="rOVI7ApDG3kp_KQPrLXT-11" value="Aux da Biblioteca&lt;div&gt;&#39;&lt;/div&gt;" style="shape=umlActor;verticalLabelPosition=bottom;verticalAlign=top;html=1;outlineConnect=0;" parent="1" vertex="1">
          <mxGeometry x="960" y="170" width="30" height="60" as="geometry" />
        </mxCell>
        <mxCell id="rOVI7ApDG3kp_KQPrLXT-14" value="&lt;div&gt;Professor&lt;/div&gt;&lt;div&gt;&lt;br&gt;&lt;/div&gt;" style="shape=umlActor;verticalLabelPosition=bottom;verticalAlign=top;html=1;outlineConnect=0;" parent="1" vertex="1">
          <mxGeometry x="-110" y="80" width="30" height="60" as="geometry" />
        </mxCell>
        <mxCell id="rOVI7ApDG3kp_KQPrLXT-15" value="&lt;div&gt;Pesquisador&lt;/div&gt;&lt;div&gt;&lt;br&gt;&lt;/div&gt;" style="shape=umlActor;verticalLabelPosition=bottom;verticalAlign=top;html=1;outlineConnect=0;" parent="1" vertex="1">
          <mxGeometry x="-110" y="240" width="30" height="60" as="geometry" />
        </mxCell>
        <mxCell id="rOVI7ApDG3kp_KQPrLXT-35" value="" style="endArrow=classic;html=1;rounded=0;" parent="1" edge="1">
          <mxGeometry width="50" height="50" relative="1" as="geometry">
            <mxPoint x="-20" y="190" as="sourcePoint" />
            <mxPoint x="120" y="190" as="targetPoint" />
          </mxGeometry>
        </mxCell>
        <mxCell id="rOVI7ApDG3kp_KQPrLXT-36" value="Consulta acervo" style="ellipse;whiteSpace=wrap;html=1;" parent="1" vertex="1">
          <mxGeometry x="340" y="130" width="80" height="50" as="geometry" />
        </mxCell>
        <mxCell id="rOVI7ApDG3kp_KQPrLXT-37" value="Realiza Empréstimo" style="ellipse;whiteSpace=wrap;html=1;" parent="1" vertex="1">
          <mxGeometry x="340" y="220" width="80" height="50" as="geometry" />
        </mxCell>
        <mxCell id="rOVI7ApDG3kp_KQPrLXT-38" value="Renova Empréstimo" style="ellipse;whiteSpace=wrap;html=1;" parent="1" vertex="1">
          <mxGeometry x="340" y="300" width="80" height="50" as="geometry" />
        </mxCell>
        <mxCell id="rOVI7ApDG3kp_KQPrLXT-40" value="Paga Multa" style="ellipse;whiteSpace=wrap;html=1;" parent="1" vertex="1">
          <mxGeometry x="268" y="60" width="80" height="50" as="geometry" />
        </mxCell>
        <mxCell id="rOVI7ApDG3kp_KQPrLXT-41" value="Editar Cadastro" style="ellipse;whiteSpace=wrap;html=1;" parent="1" vertex="1">
          <mxGeometry x="140" y="410" width="80" height="50" as="geometry" />
        </mxCell>
        <mxCell id="rOVI7ApDG3kp_KQPrLXT-42" value="Recebe ID de Usuário" style="ellipse;whiteSpace=wrap;html=1;" parent="1" vertex="1">
          <mxGeometry x="204" y="540" width="80" height="50" as="geometry" />
        </mxCell>
        <mxCell id="rOVI7ApDG3kp_KQPrLXT-43" value="Preenche formulário" style="ellipse;whiteSpace=wrap;html=1;" parent="1" vertex="1">
          <mxGeometry x="60" y="540" width="80" height="50" as="geometry" />
        </mxCell>
        <mxCell id="rOVI7ApDG3kp_KQPrLXT-45" value="" style="endArrow=none;dashed=1;html=1;dashPattern=1 3;strokeWidth=2;rounded=0;exitX=0.5;exitY=0;exitDx=0;exitDy=0;entryX=0;entryY=1;entryDx=0;entryDy=0;" parent="1" source="rOVI7ApDG3kp_KQPrLXT-43" target="rOVI7ApDG3kp_KQPrLXT-41" edge="1">
          <mxGeometry width="50" height="50" relative="1" as="geometry">
            <mxPoint x="136" y="477.5" as="sourcePoint" />
            <mxPoint x="156" y="460" as="targetPoint" />
          </mxGeometry>
        </mxCell>
        <mxCell id="o5Q6MH4g4nBw9JEmUoqo-15" value="&lt;span style=&quot;font-size: 14px;&quot;&gt;&amp;lt;&amp;lt;include&amp;gt;&amp;gt;&lt;/span&gt;" style="edgeLabel;html=1;align=center;verticalAlign=middle;resizable=0;points=[];" vertex="1" connectable="0" parent="rOVI7ApDG3kp_KQPrLXT-45">
          <mxGeometry x="-0.2398" y="1" relative="1" as="geometry">
            <mxPoint as="offset" />
          </mxGeometry>
        </mxCell>
        <mxCell id="rOVI7ApDG3kp_KQPrLXT-47" value="" style="endArrow=none;dashed=1;html=1;dashPattern=1 3;strokeWidth=2;rounded=0;entryX=0.5;entryY=0;entryDx=0;entryDy=0;" parent="1" target="rOVI7ApDG3kp_KQPrLXT-42" edge="1">
          <mxGeometry width="50" height="50" relative="1" as="geometry">
            <mxPoint x="215" y="450" as="sourcePoint" />
            <mxPoint x="235.97000000000003" y="487.4" as="targetPoint" />
          </mxGeometry>
        </mxCell>
        <mxCell id="o5Q6MH4g4nBw9JEmUoqo-14" value="&amp;lt;&amp;lt;include&amp;gt;&amp;gt;" style="edgeLabel;html=1;align=center;verticalAlign=middle;resizable=0;points=[];fontSize=14;" vertex="1" connectable="0" parent="rOVI7ApDG3kp_KQPrLXT-47">
          <mxGeometry x="0.1383" y="-2" relative="1" as="geometry">
            <mxPoint as="offset" />
          </mxGeometry>
        </mxCell>
        <mxCell id="rOVI7ApDG3kp_KQPrLXT-56" value="Informação Inválida" style="ellipse;whiteSpace=wrap;html=1;" parent="1" vertex="1">
          <mxGeometry x="510" y="70" width="80" height="50" as="geometry" />
        </mxCell>
        <mxCell id="rOVI7ApDG3kp_KQPrLXT-57" value="" style="endArrow=none;dashed=1;html=1;dashPattern=1 3;strokeWidth=2;rounded=0;exitX=1;exitY=0.5;exitDx=0;exitDy=0;entryX=0;entryY=0.5;entryDx=0;entryDy=0;" parent="1" source="rOVI7ApDG3kp_KQPrLXT-36" target="rOVI7ApDG3kp_KQPrLXT-56" edge="1">
          <mxGeometry width="50" height="50" relative="1" as="geometry">
            <mxPoint x="310" y="340" as="sourcePoint" />
            <mxPoint x="360" y="290" as="targetPoint" />
          </mxGeometry>
        </mxCell>
        <mxCell id="o5Q6MH4g4nBw9JEmUoqo-10" value="&amp;lt;&amp;lt;extends&amp;gt;&amp;gt;" style="edgeLabel;html=1;align=center;verticalAlign=middle;resizable=0;points=[];fontSize=14;" vertex="1" connectable="0" parent="rOVI7ApDG3kp_KQPrLXT-57">
          <mxGeometry x="-0.032" y="4" relative="1" as="geometry">
            <mxPoint as="offset" />
          </mxGeometry>
        </mxCell>
        <mxCell id="rOVI7ApDG3kp_KQPrLXT-58" value="Cadastrar Material" style="ellipse;whiteSpace=wrap;html=1;" parent="1" vertex="1">
          <mxGeometry x="632" y="150" width="80" height="50" as="geometry" />
        </mxCell>
        <mxCell id="rOVI7ApDG3kp_KQPrLXT-59" value="Catalogar Material" style="ellipse;whiteSpace=wrap;html=1;" parent="1" vertex="1">
          <mxGeometry x="632" y="230" width="80" height="50" as="geometry" />
        </mxCell>
        <mxCell id="rOVI7ApDG3kp_KQPrLXT-60" value="Atualiza Livro" style="ellipse;whiteSpace=wrap;html=1;" parent="1" vertex="1">
          <mxGeometry x="430" y="160" width="80" height="50" as="geometry" />
        </mxCell>
        <mxCell id="rOVI7ApDG3kp_KQPrLXT-64" value="" style="endArrow=none;dashed=1;html=1;dashPattern=1 3;strokeWidth=2;rounded=0;exitX=1;exitY=0.5;exitDx=0;exitDy=0;entryX=0;entryY=1;entryDx=0;entryDy=0;" parent="1" source="rOVI7ApDG3kp_KQPrLXT-60" target="rOVI7ApDG3kp_KQPrLXT-58" edge="1">
          <mxGeometry width="50" height="50" relative="1" as="geometry">
            <mxPoint x="550" y="170" as="sourcePoint" />
            <mxPoint x="592" y="165" as="targetPoint" />
          </mxGeometry>
        </mxCell>
        <mxCell id="o5Q6MH4g4nBw9JEmUoqo-11" value="&amp;lt;&amp;lt;extends&amp;gt;&amp;gt;" style="edgeLabel;html=1;align=center;verticalAlign=middle;resizable=0;points=[];fontSize=13;" vertex="1" connectable="0" parent="rOVI7ApDG3kp_KQPrLXT-64">
          <mxGeometry x="0.1486" y="-2" relative="1" as="geometry">
            <mxPoint x="-14" y="-5" as="offset" />
          </mxGeometry>
        </mxCell>
        <mxCell id="rOVI7ApDG3kp_KQPrLXT-71" value="" style="endArrow=classic;html=1;rounded=0;" parent="1" edge="1">
          <mxGeometry width="50" height="50" relative="1" as="geometry">
            <mxPoint x="950" y="200" as="sourcePoint" />
            <mxPoint x="850" y="200" as="targetPoint" />
          </mxGeometry>
        </mxCell>
        <mxCell id="o5Q6MH4g4nBw9JEmUoqo-1" value="" style="endArrow=none;html=1;rounded=0;entryX=0;entryY=0.5;entryDx=0;entryDy=0;" edge="1" parent="1" source="rOVI7ApDG3kp_KQPrLXT-1" target="rOVI7ApDG3kp_KQPrLXT-36">
          <mxGeometry width="50" height="50" relative="1" as="geometry">
            <mxPoint x="390" y="250" as="sourcePoint" />
            <mxPoint x="440" y="200" as="targetPoint" />
          </mxGeometry>
        </mxCell>
        <mxCell id="o5Q6MH4g4nBw9JEmUoqo-2" value="" style="endArrow=none;html=1;rounded=0;entryX=0;entryY=0.5;entryDx=0;entryDy=0;" edge="1" parent="1" source="rOVI7ApDG3kp_KQPrLXT-1" target="rOVI7ApDG3kp_KQPrLXT-38">
          <mxGeometry width="50" height="50" relative="1" as="geometry">
            <mxPoint x="320" y="260" as="sourcePoint" />
            <mxPoint x="370" y="210" as="targetPoint" />
          </mxGeometry>
        </mxCell>
        <mxCell id="o5Q6MH4g4nBw9JEmUoqo-3" value="" style="endArrow=none;html=1;rounded=0;entryX=0;entryY=0.5;entryDx=0;entryDy=0;" edge="1" parent="1" source="rOVI7ApDG3kp_KQPrLXT-1" target="rOVI7ApDG3kp_KQPrLXT-37">
          <mxGeometry width="50" height="50" relative="1" as="geometry">
            <mxPoint x="320" y="260" as="sourcePoint" />
            <mxPoint x="370" y="210" as="targetPoint" />
          </mxGeometry>
        </mxCell>
        <mxCell id="o5Q6MH4g4nBw9JEmUoqo-4" value="" style="endArrow=none;html=1;rounded=0;entryX=0;entryY=0.5;entryDx=0;entryDy=0;" edge="1" parent="1" source="rOVI7ApDG3kp_KQPrLXT-1" target="rOVI7ApDG3kp_KQPrLXT-40">
          <mxGeometry width="50" height="50" relative="1" as="geometry">
            <mxPoint x="320" y="350" as="sourcePoint" />
            <mxPoint x="370" y="300" as="targetPoint" />
          </mxGeometry>
        </mxCell>
        <mxCell id="o5Q6MH4g4nBw9JEmUoqo-5" value="" style="endArrow=none;html=1;rounded=0;entryX=0;entryY=0.5;entryDx=0;entryDy=0;" edge="1" parent="1" source="rOVI7ApDG3kp_KQPrLXT-1" target="rOVI7ApDG3kp_KQPrLXT-41">
          <mxGeometry width="50" height="50" relative="1" as="geometry">
            <mxPoint x="270" y="330" as="sourcePoint" />
            <mxPoint x="320" y="280" as="targetPoint" />
          </mxGeometry>
        </mxCell>
        <mxCell id="o5Q6MH4g4nBw9JEmUoqo-6" value="Reservar material" style="ellipse;whiteSpace=wrap;html=1;" vertex="1" parent="1">
          <mxGeometry x="280" y="360" width="80" height="50" as="geometry" />
        </mxCell>
        <mxCell id="o5Q6MH4g4nBw9JEmUoqo-7" value="" style="endArrow=none;html=1;rounded=0;" edge="1" parent="1" source="rOVI7ApDG3kp_KQPrLXT-1" target="o5Q6MH4g4nBw9JEmUoqo-6">
          <mxGeometry width="50" height="50" relative="1" as="geometry">
            <mxPoint x="410" y="370" as="sourcePoint" />
            <mxPoint x="460" y="320" as="targetPoint" />
          </mxGeometry>
        </mxCell>
        <mxCell id="o5Q6MH4g4nBw9JEmUoqo-8" value="Consulta Histórico de Empréstimos" style="ellipse;whiteSpace=wrap;html=1;" vertex="1" parent="1">
          <mxGeometry x="268" y="460" width="112" height="70" as="geometry" />
        </mxCell>
        <mxCell id="o5Q6MH4g4nBw9JEmUoqo-9" value="" style="endArrow=none;html=1;rounded=0;exitX=0.026;exitY=0.375;exitDx=0;exitDy=0;exitPerimeter=0;" edge="1" parent="1" source="o5Q6MH4g4nBw9JEmUoqo-8">
          <mxGeometry width="50" height="50" relative="1" as="geometry">
            <mxPoint x="410" y="370" as="sourcePoint" />
            <mxPoint x="170" y="200" as="targetPoint" />
          </mxGeometry>
        </mxCell>
        <mxCell id="o5Q6MH4g4nBw9JEmUoqo-17" value="" style="endArrow=none;html=1;rounded=0;" edge="1" parent="1">
          <mxGeometry width="50" height="50" relative="1" as="geometry">
            <mxPoint x="-20" y="260" as="sourcePoint" />
            <mxPoint x="-20" y="100" as="targetPoint" />
          </mxGeometry>
        </mxCell>
        <mxCell id="o5Q6MH4g4nBw9JEmUoqo-18" value="" style="endArrow=none;html=1;rounded=0;" edge="1" parent="1">
          <mxGeometry width="50" height="50" relative="1" as="geometry">
            <mxPoint x="-70" y="100" as="sourcePoint" />
            <mxPoint x="-20" y="100" as="targetPoint" />
          </mxGeometry>
        </mxCell>
        <mxCell id="o5Q6MH4g4nBw9JEmUoqo-19" value="" style="endArrow=none;html=1;rounded=0;" edge="1" parent="1">
          <mxGeometry width="50" height="50" relative="1" as="geometry">
            <mxPoint x="-70" y="260" as="sourcePoint" />
            <mxPoint x="-20" y="260" as="targetPoint" />
          </mxGeometry>
        </mxCell>
        <mxCell id="o5Q6MH4g4nBw9JEmUoqo-21" value="Gerenciar Empréstimo" style="ellipse;whiteSpace=wrap;html=1;" vertex="1" parent="1">
          <mxGeometry x="640" y="340" width="98" height="60" as="geometry" />
        </mxCell>
        <mxCell id="o5Q6MH4g4nBw9JEmUoqo-22" value="" style="endArrow=none;html=1;rounded=0;exitX=1;exitY=0.5;exitDx=0;exitDy=0;" edge="1" parent="1" source="rOVI7ApDG3kp_KQPrLXT-58">
          <mxGeometry width="50" height="50" relative="1" as="geometry">
            <mxPoint x="460" y="350" as="sourcePoint" />
            <mxPoint x="790" y="190" as="targetPoint" />
          </mxGeometry>
        </mxCell>
        <mxCell id="o5Q6MH4g4nBw9JEmUoqo-23" value="" style="endArrow=none;html=1;rounded=0;exitX=1;exitY=0.5;exitDx=0;exitDy=0;" edge="1" parent="1" source="rOVI7ApDG3kp_KQPrLXT-59">
          <mxGeometry width="50" height="50" relative="1" as="geometry">
            <mxPoint x="460" y="350" as="sourcePoint" />
            <mxPoint x="800" y="200" as="targetPoint" />
          </mxGeometry>
        </mxCell>
        <mxCell id="o5Q6MH4g4nBw9JEmUoqo-24" value="" style="endArrow=none;html=1;rounded=0;entryX=1;entryY=0;entryDx=0;entryDy=0;" edge="1" parent="1" target="o5Q6MH4g4nBw9JEmUoqo-21">
          <mxGeometry width="50" height="50" relative="1" as="geometry">
            <mxPoint x="800" y="210" as="sourcePoint" />
            <mxPoint x="510" y="300" as="targetPoint" />
          </mxGeometry>
        </mxCell>
        <mxCell id="o5Q6MH4g4nBw9JEmUoqo-25" value="" style="endArrow=none;dashed=1;html=1;dashPattern=1 3;strokeWidth=2;rounded=0;entryX=0;entryY=0;entryDx=0;entryDy=0;exitX=1;exitY=0.5;exitDx=0;exitDy=0;" edge="1" parent="1" source="rOVI7ApDG3kp_KQPrLXT-38" target="o5Q6MH4g4nBw9JEmUoqo-21">
          <mxGeometry width="50" height="50" relative="1" as="geometry">
            <mxPoint x="600" y="315" as="sourcePoint" />
            <mxPoint x="510" y="300" as="targetPoint" />
          </mxGeometry>
        </mxCell>
        <mxCell id="o5Q6MH4g4nBw9JEmUoqo-26" value="&lt;font style=&quot;font-size: 14px;&quot;&gt;&amp;lt;&amp;lt;include&amp;gt;&amp;gt;&lt;/font&gt;" style="edgeLabel;html=1;align=center;verticalAlign=middle;resizable=0;points=[];fontSize=14;" vertex="1" connectable="0" parent="o5Q6MH4g4nBw9JEmUoqo-25">
          <mxGeometry x="0.2578" y="-2" relative="1" as="geometry">
            <mxPoint as="offset" />
          </mxGeometry>
        </mxCell>
        <mxCell id="o5Q6MH4g4nBw9JEmUoqo-27" value="Gerar Relatório" style="ellipse;whiteSpace=wrap;html=1;" vertex="1" parent="1">
          <mxGeometry x="720" y="430" width="98" height="60" as="geometry" />
        </mxCell>
        <mxCell id="o5Q6MH4g4nBw9JEmUoqo-28" value="" style="endArrow=none;html=1;rounded=0;entryX=0.5;entryY=0;entryDx=0;entryDy=0;" edge="1" parent="1" source="rOVI7ApDG3kp_KQPrLXT-6" target="o5Q6MH4g4nBw9JEmUoqo-27">
          <mxGeometry width="50" height="50" relative="1" as="geometry">
            <mxPoint x="610" y="390" as="sourcePoint" />
            <mxPoint x="660" y="340" as="targetPoint" />
          </mxGeometry>
        </mxCell>
        <mxCell id="o5Q6MH4g4nBw9JEmUoqo-29" value="" style="endArrow=none;dashed=1;html=1;dashPattern=1 3;strokeWidth=2;rounded=0;exitX=0;exitY=0.5;exitDx=0;exitDy=0;entryX=1;entryY=0.5;entryDx=0;entryDy=0;" edge="1" parent="1" source="o5Q6MH4g4nBw9JEmUoqo-27" target="o5Q6MH4g4nBw9JEmUoqo-8">
          <mxGeometry width="50" height="50" relative="1" as="geometry">
            <mxPoint x="610" y="390" as="sourcePoint" />
            <mxPoint x="660" y="340" as="targetPoint" />
          </mxGeometry>
        </mxCell>
        <mxCell id="o5Q6MH4g4nBw9JEmUoqo-30" value="&amp;lt;&amp;lt;extends&amp;gt;&amp;gt;" style="edgeLabel;html=1;align=center;verticalAlign=middle;resizable=0;points=[];fontSize=14;" vertex="1" connectable="0" parent="o5Q6MH4g4nBw9JEmUoqo-29">
          <mxGeometry x="0.3758" relative="1" as="geometry">
            <mxPoint as="offset" />
          </mxGeometry>
        </mxCell>
        <mxCell id="o5Q6MH4g4nBw9JEmUoqo-31" value="Configurar Sistema" style="ellipse;whiteSpace=wrap;html=1;" vertex="1" parent="1">
          <mxGeometry x="729" y="40" width="98" height="60" as="geometry" />
        </mxCell>
        <mxCell id="o5Q6MH4g4nBw9JEmUoqo-32" value="" style="endArrow=none;html=1;rounded=0;entryX=0.5;entryY=1;entryDx=0;entryDy=0;" edge="1" parent="1" target="o5Q6MH4g4nBw9JEmUoqo-31">
          <mxGeometry width="50" height="50" relative="1" as="geometry">
            <mxPoint x="800" y="170" as="sourcePoint" />
            <mxPoint x="660" y="100" as="targetPoint" />
          </mxGeometry>
        </mxCell>
      </root>
    </mxGraphModel>
  </diagram>
</mxfile>
